<?xml version="1.0" encoding="UTF-8"?>
<!-- Generator: visioncortex VTracer 0.6.4 -->
<svg version="1.1" xmlns="http://www.w3.org/2000/svg" viewBox="0 0 1472 704">
<path d="M0 0 C2.07170317 0.22539078 4.1502308 0.38671963 6.22900391 0.53320312 C14.43501969 1.33379003 19.03624039 5.20695402 24.45947266 11.26757812 C36.14897163 28.80182659 28.25443316 66.67291821 24.32797241 86.31362915 C22.63670003 94.36491077 20.60871206 102.32792365 18.45947266 110.26757812 C18.0742041 111.6974707 18.0742041 111.6974707 17.68115234 113.15625 C16.10068266 118.91533765 14.34751334 124.60230693 12.45947266 130.26757812 C12.04109131 131.53263184 12.04109131 131.53263184 11.61425781 132.82324219 C5.16652617 152.04907631 -2.59988434 171.54525392 -13.76318359 188.55273438 C-15.58189495 191.33076601 -17.18228067 194.17597802 -18.79052734 197.08007812 C-22.94494914 204.27152552 -27.9976773 210.76557352 -33.05834961 217.33203125 C-34.55970012 219.29261547 -36.03585853 221.27031719 -37.50927734 223.25195312 C-42.63316473 230.09712692 -48.10312337 236.67085846 -53.54052734 243.26757812 C-54.28560547 244.1725 -55.03068359 245.07742188 -55.79833984 246.00976562 C-56.39388672 246.71359375 -56.98943359 247.41742188 -57.60302734 248.14257812 C-58.33199219 249.00496094 -58.33199219 249.00496094 -59.07568359 249.88476562 C-60.54052734 251.26757812 -60.54052734 251.26757812 -62.59912109 252.21289062 C-65.04766617 253.54308614 -65.36799362 254.78810958 -66.54052734 257.26757812 C-68.31005859 259.01367188 -68.31005859 259.01367188 -70.35302734 260.70507812 C-72.63078071 262.63240789 -74.80361728 264.53066806 -76.91552734 266.64257812 C-85.0352694 274.76232018 -93.74036807 281.4202392 -103.07177734 288.06835938 C-113.65872472 295.61604538 -123.71500189 303.75958877 -133.54052734 312.26757812 C-134.32298828 312.93660156 -135.10544922 313.605625 -135.91162109 314.29492188 C-141.92554336 319.5584067 -147.56729631 325.1920289 -153.22802734 330.83007812 C-154.03643066 331.63380859 -154.84483398 332.43753906 -155.67773438 333.265625 C-159.94778121 337.54708672 -164.0624074 341.90320609 -168.00561523 346.48754883 C-170.08788776 348.90234904 -172.25200587 351.23808434 -174.41552734 353.58007812 C-190.33823148 371.06618977 -203.95616104 390.28693923 -216.54052734 410.26757812 C-216.8953418 410.83009277 -217.25015625 411.39260742 -217.61572266 411.97216797 C-222.20067535 419.26448654 -226.5518356 426.63265806 -230.54052734 434.26757812 C-231.13349609 435.3890625 -231.72646484 436.51054687 -232.33740234 437.66601562 C-241.34577816 454.99861579 -248.56772168 473.24447861 -254.70947266 491.77246094 C-255.5601723 494.32655916 -256.43688884 496.87086923 -257.31396484 499.41601562 C-265.38752802 523.24984235 -269.1945656 546.63948438 -270.60400391 571.67114258 C-270.65447876 572.53472382 -270.70495361 573.39830505 -270.75695801 574.28805542 C-270.84962942 575.91326738 -270.93435236 577.53895976 -271.00964355 579.16506958 C-271.33031154 584.91042371 -272.19482906 588.58545527 -275.79052734 593.08007812 C-279.13368425 595.73940748 -280.36822733 595.70045425 -284.54052734 595.26757812 C-286.96240234 594.01757812 -286.96240234 594.01757812 -289.29052734 592.26757812 C-290.13873047 591.63464844 -290.98693359 591.00171875 -291.86083984 590.34960938 C-292.74513672 589.66253906 -293.62943359 588.97546875 -294.54052734 588.26757812 C-295.48669922 587.54957031 -296.43287109 586.8315625 -297.40771484 586.09179688 C-302.56496757 582.09602175 -302.56496757 582.09602175 -304.54052734 580.26757812 C-304.54052734 579.60757813 -304.54052734 578.94757812 -304.54052734 578.26757812 C-305.07419922 578.06648437 -305.60787109 577.86539063 -306.15771484 577.65820312 C-332.29267096 562.40567136 -347.94995415 521.22113816 -356.91308594 494.15625 C-357.46820493 492.48527705 -358.04386656 490.8211593 -358.62255859 489.15820312 C-360.93866665 482.18219638 -362.59208525 475.06560603 -364.16552734 467.89257812 C-364.47502319 466.54087524 -364.47502319 466.54087524 -364.79077148 465.16186523 C-369.09938169 444.70340141 -368.83996841 423.68017984 -368.73614502 402.88006592 C-368.72526803 400.13325693 -368.72573229 397.3864962 -368.72612381 394.63966942 C-368.72566761 375.78298127 -368.54725374 357.58387665 -364.91552734 339.01757812 C-364.7171225 337.99077942 -364.7171225 337.99077942 -364.51470947 336.9432373 C-356.82181786 297.24439958 -344.93328514 257.659144 -326.66162109 221.48632812 C-325.32037966 218.82934645 -323.99849614 216.16477738 -322.70068359 213.48632812 C-313.67418078 194.93908289 -303.34902372 177.17810385 -291.54052734 160.26757812 C-291.10111816 159.63529297 -290.66170898 159.00300781 -290.20898438 158.3515625 C-279.07067474 142.37582722 -266.87906709 127.46512155 -253.94287109 112.91601562 C-252.45622441 111.21899576 -252.45622441 111.21899576 -250.98193359 109.05664062 C-250.2684375 108.17105469 -250.2684375 108.17105469 -249.54052734 107.26757812 C-248.88052734 107.26757812 -248.22052734 107.26757812 -247.54052734 107.26757812 C-247.32654297 106.72746094 -247.11255859 106.18734375 -246.89208984 105.63085938 C-245.05416617 102.41714891 -242.54383834 100.01839787 -239.91552734 97.45507812 C-239.37355713 96.92027832 -238.83158691 96.38547852 -238.27319336 95.83447266 C-234.81098318 92.44172278 -231.27422079 89.16897297 -227.57958984 86.02929688 C-225.11281236 83.89803894 -222.74088417 81.67433987 -220.35302734 79.45507812 C-211.35464836 71.25433938 -201.56456324 64.15815212 -191.54052734 57.26757812 C-190.55697266 56.57019531 -189.57341797 55.8728125 -188.56005859 55.15429688 C-180.98098442 49.80924944 -173.20308963 44.94888147 -165.20654297 40.25488281 C-162.98466018 38.93816329 -160.79725116 37.56726405 -158.60302734 36.20507812 C-135.77674247 22.54703659 -110.76871632 13.55844702 -85.12109375 6.93603516 C-82.82315674 6.34078903 -80.53148745 5.72594853 -78.23974609 5.10742188 C-52.85889992 -1.52554566 -25.98170216 -2.97040492 0 0 Z " fill="white" transform="translate(397.54052734375,32.732421875)"/>
<path d="M0 0 C1.18131973 -0.00551949 2.36263947 -0.01103897 3.57975677 -0.01672572 C5.53992423 -0.01055976 5.53992423 -0.01055976 7.53969103 -0.00426924 C8.94070418 -0.00696058 10.34171588 -0.01052724 11.74272481 -0.01489371 C15.61886496 -0.02439681 19.49491171 -0.02133654 23.3710566 -0.01633817 C27.57834657 -0.01308441 31.78561602 -0.02134336 35.99289954 -0.02815652 C43.37585068 -0.03848788 50.75877558 -0.04129489 58.14173323 -0.03924429 C69.12107758 -0.03620224 80.10039276 -0.04450085 91.07973145 -0.05499355 C111.83149447 -0.07437027 132.58324763 -0.07996323 153.33501863 -0.08110766 C169.36500436 -0.08202591 185.39498621 -0.08613822 201.42497069 -0.09250891 C206.03541334 -0.09430397 210.645856 -0.0960836 215.25629866 -0.09785867 C216.40242605 -0.09830076 217.54855343 -0.09874286 218.72941195 -0.09919835 C250.9866389 -0.11151387 283.24386451 -0.11939881 315.50109392 -0.1185118 C317.32673129 -0.11846506 317.32673129 -0.11846506 319.18925021 -0.11841738 C325.35823854 -0.11825116 331.52722687 -0.11805308 337.6962152 -0.11784796 C339.53404277 -0.11778813 339.53404277 -0.11778813 341.40899817 -0.11772708 C343.88669514 -0.11764621 346.36439211 -0.11756261 348.84208908 -0.1174763 C387.36333732 -0.11625167 425.88455032 -0.13124488 464.40578848 -0.15862143 C507.67034177 -0.1893562 550.93487189 -0.20655292 594.19943678 -0.20469499 C598.81522348 -0.20454572 603.43101016 -0.20444831 608.04679686 -0.20438635 C609.75161418 -0.20435139 609.75161418 -0.20435139 611.49087227 -0.20431572 C629.77007961 -0.20425421 648.04925633 -0.21701908 666.32845458 -0.23425088 C684.71217278 -0.25122225 703.09584629 -0.25316959 721.479568 -0.24003224 C732.39550121 -0.23265175 743.31129848 -0.23627394 754.22721723 -0.25591692 C761.52889368 -0.26794332 768.83047199 -0.26529631 776.13214399 -0.25097592 C780.28614627 -0.24323505 784.4398861 -0.2415966 788.59386956 -0.25789063 C816.81529301 -0.3613879 841.14426751 1.11058152 863.37331778 20.25299966 C880.83082969 37.65491441 886.61480608 61.25919396 886.78916556 85.0622648 C886.80822909 86.75144761 886.82800923 88.44062246 886.84844488 90.12978923 C886.90108931 94.72159656 886.94087084 99.31343181 886.97750609 103.90539163 C887.00171378 106.829642 887.02935502 109.7538407 887.0580861 112.67804992 C887.48536041 156.37028234 887.45839503 200.06166261 887.34683747 243.75533427 C887.32725939 251.42788983 887.3099042 259.10044777 887.29389006 266.77301157 C887.28916528 269.02905969 887.28443992 271.28510781 887.27971399 273.54115593 C887.27735909 274.6654056 887.27500418 275.78965527 887.27257792 276.9479731 C887.2284747 297.84857794 887.17660852 318.74915778 887.12218807 339.64973792 C887.0727782 358.72844312 887.0340453 377.80715378 886.99995347 396.88589194 C886.96451508 416.65945301 886.92177317 436.43298617 886.87119806 456.20651448 C886.84311881 467.23741996 886.81791551 478.2683134 886.80053908 489.29924142 C886.7857787 498.62593898 886.76416538 507.95258962 886.73366394 517.27924952 C886.71833424 522.02453002 886.70613553 526.76976229 886.70256239 531.51506746 C886.69920843 535.86073419 886.68666302 540.20627641 886.66697065 544.55189893 C886.66145563 546.11743109 886.65922018 547.68297924 886.66071775 549.2485204 C886.67800744 573.19772623 880.23077989 593.6316838 863.37331778 611.25299966 C859.85585076 614.16956606 856.18168985 616.7340764 852.37331778 619.25299966 C851.42456778 619.97487466 850.47581778 620.69674966 849.49831778 621.44049966 C827.33637964 634.29442378 800.66057667 632.84099171 775.93529068 632.76066852 C771.11982048 632.74951588 766.30439652 632.76180957 761.48892993 632.77097601 C753.0680828 632.78382606 744.64734115 632.78196055 736.2264939 632.77019632 C723.70500455 632.75275146 711.18359753 632.75833585 698.66210382 632.76836323 C676.29901735 632.78552259 653.93598002 632.78003611 631.57289459 632.76500604 C612.01360883 632.7519451 592.4543401 632.7467601 572.89505011 632.7493242 C570.94759935 632.74956483 570.94759935 632.74956483 568.96080614 632.74981031 C563.69054349 632.7504739 558.42028084 632.75117632 553.1500182 632.75193565 C538.42059867 632.75402833 523.69117929 632.75479983 508.96175963 632.75451887 C508.29116577 632.75450649 507.62057192 632.75449411 506.92965704 632.75448135 C485.57764719 632.75399232 464.22564343 632.74757406 442.87363631 632.73696172 C441.83552726 632.73644657 441.83552726 632.73644657 440.77644631 632.735921 C429.53849096 632.73032277 418.30053579 632.72438837 407.06258063 632.71843194 C362.44951582 632.69480758 317.83648522 632.68864718 273.22341543 632.69904459 C270.40143531 632.69969779 267.57945519 632.70034911 264.75747506 632.70100009 C264.05974823 632.70116112 263.36202139 632.70132216 262.64315132 632.70148807 C254.91610596 632.70326754 247.1890606 632.70498968 239.46201521 632.70664251 C238.42261525 632.70686656 238.42261525 632.70686656 237.3622173 632.70709514 C199.97742202 632.71508966 162.5926305 632.70895968 125.20783633 632.69794649 C121.26288395 632.69679867 117.31793156 632.69565549 113.37297918 632.69451966 C110.75598117 632.69376442 108.13898316 632.69299878 105.52198515 632.69222266 C85.96051323 632.68655792 66.39904983 632.68789841 46.83757788 632.69245088 C24.61529487 632.69754911 2.39304381 632.69174747 -19.82923122 632.67155658 C-32.27496246 632.66054038 -44.72063095 632.65780473 -57.16636415 632.66684512 C-65.46667285 632.67204271 -73.76692757 632.66642412 -82.06722492 632.65179177 C-86.80434486 632.64374419 -91.54133741 632.64053896 -96.27845688 632.65036433 C-100.58128572 632.65918799 -104.88386855 632.65439494 -109.18667469 632.6383849 C-110.73971409 632.63504973 -112.29277426 632.63681962 -113.84580011 632.64411338 C-115.94440885 632.65324706 -118.04215573 632.64410105 -120.14071947 632.63019782 C-121.30565188 632.62977081 -122.47058429 632.62934379 -123.67081768 632.62890383 C-126.93264915 632.21408914 -128.31322239 631.5529484 -130.62668222 629.25299966 C-131.30246347 626.83893716 -131.30246347 626.83893716 -130.62668222 624.25299966 C-128.34677513 622.51153216 -126.31554414 621.21808986 -123.81418222 619.87799966 C-122.42301217 619.0872912 -121.03239012 618.29561782 -119.64230722 617.50299966 C-118.61073496 616.92678873 -118.61073496 616.92678873 -117.55832285 616.33893716 C-108.46530227 611.22698626 -100.35159886 605.08411189 -92.25314707 598.55915201 C-90.79849866 597.39097894 -89.33245819 596.23702464 -87.86496347 595.08503091 C-78.44397309 587.67542937 -69.76414707 579.47551222 -61.0321998 571.27936685 C-57.78668057 568.23966912 -54.5185966 565.25518774 -51.12668222 562.37799966 C-48.0431496 559.71435233 -45.42269603 556.84262011 -42.79465097 553.73346841 C-40.48068611 551.08595906 -38.07494445 548.54650969 -35.65109628 546.00006998 C-28.76976918 538.75290942 -22.52600652 531.32195287 -16.62668222 523.25299966 C-15.94219003 522.31842935 -15.25769785 521.38385904 -14.55246347 520.42096841 C-13.23730819 518.61489073 -11.92731749 516.80503984 -10.62277597 514.99128091 C-8.50309543 512.08346083 -6.31609497 509.23359271 -4.12668222 506.37799966 C0.04651183 500.82323624 3.70321896 495.06354225 7.26052481 489.10016763 C8.46607677 487.09902543 9.69656254 485.11478532 10.93191153 483.13190591 C17.8168763 472.05270906 24.24475085 460.76742403 30.37331778 449.25299966 C30.72990469 448.58655435 31.08649161 447.92010904 31.45388418 447.23346841 C48.94433047 414.28218395 61.28502252 378.36138953 69.69753653 342.11335123 C70.26013281 339.73207302 70.84938495 337.3625843 71.46706778 334.99518716 C73.86195886 325.58944559 75.47716359 316.0837257 76.99831778 306.50299966 C77.30781363 304.57701944 77.30781363 304.57701944 77.62356192 302.61213052 C78.25697103 298.49767155 78.83695267 294.38105433 79.37331778 290.25299966 C79.47007803 289.51918069 79.56683829 288.78536172 79.66653067 288.02930582 C81.67586251 272.16089862 81.68371547 256.27231421 81.63405997 240.3067106 C81.6226873 236.62389534 81.62944347 232.94136969 81.6409207 229.25856435 C81.70066075 206.80385399 80.86715042 184.76990772 76.49831778 162.69049966 C76.25134976 161.37230379 76.00525978 160.05394311 75.76003653 158.73542154 C74.09791875 150.08465829 71.94546641 141.67604434 69.37331778 133.25299966 C69.10503165 132.36958902 68.83674551 131.48617837 68.5603295 130.57599771 C58.83268061 99.23239662 45.11932306 68.8881909 24.37331778 43.25299966 C23.67335684 42.37901529 22.9733959 41.50503091 22.25222403 40.60456216 C14.90084733 31.50771127 7.25090428 22.74446734 -1.30246347 14.75299966 C-2.17258066 13.92799966 -3.04269785 13.10299966 -3.93918222 12.25299966 C-5.26369394 11.01549966 -5.26369394 11.01549966 -6.61496347 9.75299966 C-8.62668222 7.25299966 -8.62668222 7.25299966 -9.10715097 4.56549966 C-8.09289915 -0.31610262 -4.16732247 0.00237716 0 0 Z M225.37331778 122.25299966 C219.34312605 127.51112289 219.34312605 127.51112289 216.37331778 134.25299966 C215.83706778 134.47987466 215.30081778 134.70674966 214.74831778 134.94049966 C209.73831044 137.70918793 202.87040084 142.7981926 200.56081778 148.12799966 C200.0781573 153.59815174 200.06253826 158.19129216 202.37331778 163.25299966 C204.70182541 165.95910312 206.77802815 167.91070812 209.87331778 169.69049966 C212.23130685 171.16424284 213.36244372 172.30881609 215.06081778 174.44049966 C215.82394278 175.36862466 216.58706778 176.29674966 217.37331778 177.25299966 C218.03331778 177.25299966 218.69331778 177.25299966 219.37331778 177.25299966 C219.62081778 177.80987466 219.86831778 178.36674966 220.12331778 178.94049966 C222.78543411 183.86541488 226.4168783 187.25889363 230.65847403 190.79206216 C233.03071382 192.81305916 235.17002837 195.04971026 237.37331778 197.25299966 C238.82770707 198.52834482 240.28646062 199.79872142 241.74831778 201.06549966 C245.38184304 204.26588946 248.56642985 207.63015112 251.69753653 211.31549966 C256.22052248 216.54487269 261.30038906 221.11755252 266.52566153 225.62799966 C268.91898406 227.73290912 271.15035898 229.9699609 273.37331778 232.25299966 C274.19831778 233.07799966 275.02331778 233.90299966 275.87331778 234.75299966 C276.69831778 235.57799966 277.52331778 236.40299966 278.37331778 237.25299966 C279.11581778 237.97487466 279.85831778 238.69674966 280.62331778 239.44049966 C283.02804114 241.89987583 285.29029506 244.42122778 287.56081778 247.00299966 C291.32609187 251.21416148 295.30672991 254.96127778 299.54519278 258.68659341 C303.06736112 261.88281524 306.44489997 265.20609233 309.81081778 268.56549966 C310.41434073 269.16459146 311.01786368 269.76368326 311.6396752 270.38092935 C313.98644638 272.73531884 316.18083343 274.99228235 318.15847403 277.67096841 C318.75982168 278.45407388 318.75982168 278.45407388 319.37331778 279.25299966 C320.03331778 279.25299966 320.69331778 279.25299966 321.37331778 279.25299966 C321.62081778 279.87174966 321.86831778 280.49049966 322.12331778 281.12799966 C323.19475507 283.3904646 323.19475507 283.3904646 325.37331778 284.25299966 C327.93492562 285.53380359 328.13793171 286.70955776 329.37331778 289.25299966 C331.01699918 290.94233888 332.68760538 292.60559891 334.37331778 294.25299966 C335.92152786 296.05016815 337.43912908 297.86835344 338.94363028 299.70221841 C340.48813585 301.49981741 340.48813585 301.49981741 343.37331778 303.25299966 C344.59029798 306.90394028 344.51898459 310.26625166 344.49831778 314.06549966 C344.50218497 314.76481607 344.50605215 315.46413248 344.51003653 316.18464029 C344.50231339 320.31265529 344.1741641 324.20427662 343.37331778 328.25299966 C342.38331778 328.58299966 341.39331778 328.91299966 340.37331778 329.25299966 C339.08635424 330.76824941 337.86519592 332.34008592 336.68581778 333.94049966 C333.52187524 338.03260984 330.43975305 341.05491062 326.13503653 343.90143716 C324.0891728 345.47099115 322.7718453 347.09281254 321.37331778 349.25299966 C321.37331778 349.91299966 321.37331778 350.57299966 321.37331778 351.25299966 C320.53800528 351.59331216 320.53800528 351.59331216 319.68581778 351.94049966 C316.05531975 354.0010526 313.14731343 356.6594792 311.31081778 360.44049966 C310.09020868 362.80034391 308.73265787 363.14705899 306.37331778 364.25299966 C305.71331778 365.24299966 305.05331778 366.23299966 304.37331778 367.25299966 C303.38331778 367.58299966 302.39331778 367.91299966 301.37331778 368.25299966 C299.65879436 369.94453711 299.65879436 369.94453711 297.99831778 372.00299966 C295.89556152 374.49416313 293.79751678 376.88068495 291.43581778 379.12799966 C289.14115932 380.99863665 289.14115932 380.99863665 289.37331778 383.25299966 C288.81515372 383.48503091 288.25698965 383.71706216 287.68191153 383.95612466 C281.8203414 387.24891871 276.9078965 393.20198585 272.74831778 398.44049966 C270.83005605 400.7121254 269.07739262 402.42866997 266.83034903 404.32721841 C261.87989912 408.61337814 257.29035182 413.226221 252.68581778 417.87799966 C251.85759512 418.71073404 251.02937247 419.54346841 250.17605215 420.40143716 C248.59364789 421.99270998 247.01289778 423.58563011 245.43410879 425.1804899 C243.7552044 426.86894143 242.06075385 428.53831521 240.35769278 430.20221841 C238.29926898 432.11646015 238.29926898 432.11646015 237.31081778 434.44049966 C236.07777176 436.82438864 234.75736645 437.07595588 232.37331778 438.25299966 C231.09144341 439.21180001 229.84018848 440.21293923 228.62331778 441.25299966 C228.00972403 441.76862466 227.39613028 442.28424966 226.76394278 442.81549966 C225.14155402 444.15923218 225.14155402 444.15923218 225.37331778 446.25299966 C224.79452872 446.49405435 224.21573965 446.73510904 223.61941153 446.98346841 C220.9467211 448.49411952 219.41937224 450.22844045 217.43581778 452.56549966 C216.38974356 453.77206216 216.38974356 453.77206216 215.32253653 455.00299966 C214.67929434 455.74549966 214.03605215 456.48799966 213.37331778 457.25299966 C209.96554472 460.90418508 206.51816036 463.48977128 202.37331778 466.25299966 C200.14047866 469.60225835 199.59946293 471.25776858 199.37331778 475.25299966 C200.04237953 478.08484241 200.86946408 480.75254451 202.37331778 483.25299966 C203.36331778 483.58299966 204.35331778 483.91299966 205.37331778 484.25299966 C206.43581778 486.12799966 206.43581778 486.12799966 207.37331778 488.25299966 C209.09558274 491.50149944 209.09558274 491.50149944 212.37331778 492.25299966 C214.08440466 493.87402934 215.74585084 495.5480343 217.37331778 497.25299966 C218.64175528 498.49049966 218.64175528 498.49049966 219.93581778 499.75299966 C222.37331778 502.25299966 222.37331778 502.25299966 224.31081778 504.75299966 C228.99334114 510.42878555 232.69778437 513.01697117 239.97878653 514.16315591 C243.55652983 514.29739424 245.49488102 513.32815174 248.37331778 511.25299966 C250.08562026 509.63325407 251.74495039 507.95710506 253.37331778 506.25299966 C255.75967915 504.15687143 258.16405458 502.08406761 260.58034903 500.02253091 C261.17202872 499.4385856 261.7637084 498.85464029 262.37331778 498.25299966 C262.37331778 497.59299966 262.37331778 496.93299966 262.37331778 496.25299966 C263.36331778 495.92299966 264.35331778 495.59299966 265.37331778 495.25299966 C266.77945153 493.82738349 266.77945153 493.82738349 268.18581778 492.00299966 C272.30122306 487.10370767 276.98641145 482.90043886 281.74953848 478.64655435 C283.32589974 477.21988673 284.85422009 475.74049337 286.37331778 474.25299966 C286.37331778 473.59299966 286.37331778 472.93299966 286.37331778 472.25299966 C287.03331778 472.25299966 287.69331778 472.25299966 288.37331778 472.25299966 C288.37331778 471.59299966 288.37331778 470.93299966 288.37331778 470.25299966 C289.03331778 470.25299966 289.69331778 470.25299966 290.37331778 470.25299966 C291.5708464 468.81536506 292.70553626 467.32520852 293.81081778 465.81549966 C297.74161332 460.72645866 302.1464109 456.94738533 307.24831778 453.06549966 C307.94956778 452.46737466 308.65081778 451.86924966 309.37331778 451.25299966 C309.37331778 450.59299966 309.37331778 449.93299966 309.37331778 449.25299966 C309.96241934 449.00034341 310.5515209 448.74768716 311.15847403 448.48737466 C313.6329827 447.10828341 314.99521852 445.66662372 316.81081778 443.50299966 C317.41538809 442.7901481 318.0199584 442.07729654 318.64284903 441.34284341 C320.097535 439.58605562 321.54850835 437.82630922 322.99831778 436.06549966 C326.71431683 431.66497447 330.80898932 427.86637636 335.12331778 424.06549966 C339.51902425 420.14801461 343.43525751 415.98008302 347.26784903 411.51471841 C349.47010796 409.14902654 351.84222268 407.25557898 354.37331778 405.25299966 C355.19831778 404.26299966 356.02331778 403.27299966 356.87331778 402.25299966 C359.37331778 399.25299966 359.37331778 399.25299966 362.12331778 397.06549966 C364.63148128 395.37919551 364.63148128 395.37919551 365.37331778 392.25299966 C367.04519278 390.60456216 367.04519278 390.60456216 369.12331778 388.87799966 C371.51538999 386.85197409 373.77843212 384.84788532 375.99831778 382.62799966 C378.37331778 380.25299966 378.37331778 380.25299966 381.12331778 378.12799966 C385.05119291 374.94104155 388.01105752 370.92667044 391.12722403 366.97174966 C393.37331778 364.25299966 393.37331778 364.25299966 396.08425528 361.54596841 C398.42374653 359.45188748 398.42374653 359.45188748 399.43581778 357.06549966 C400.65544472 354.70755425 402.04394376 354.41768667 404.37331778 353.25299966 C404.68269278 352.59299966 404.99206778 351.93299966 405.31081778 351.25299966 C406.77960548 348.48822281 408.50125225 348.34711986 411.37331778 347.25299966 C413.68708925 345.35715857 413.68708925 345.35715857 415.37331778 343.25299966 C415.37331778 342.59299966 415.37331778 341.93299966 415.37331778 341.25299966 C416.03331778 341.25299966 416.69331778 341.25299966 417.37331778 341.25299966 C421.00965317 337.77301459 421.00965317 337.77301459 422.37331778 333.25299966 C423.03331778 333.25299966 423.69331778 333.25299966 424.37331778 333.25299966 C425.97391071 331.63207374 425.97391071 331.63207374 427.62331778 329.56549966 C429.85936532 326.92247275 432.04977035 324.54857042 434.74831778 322.37799966 C437.5312839 320.12512233 438.18262944 319.40302729 438.75222403 315.96784341 C439.03887899 311.63142472 439.12884404 308.47721468 436.79909903 304.70221841 C433.03250829 300.43341557 428.78763671 296.82649594 424.37331778 293.25299966 C423.71331778 292.26299966 423.05331778 291.27299966 422.37331778 290.25299966 C421.71331778 290.25299966 421.05331778 290.25299966 420.37331778 290.25299966 C420.16706778 289.69612466 419.96081778 289.13924966 419.74831778 288.56549966 C417.86291689 285.39459818 415.21972419 283.56570487 412.37331778 281.25299966 C411.71331778 280.26299966 411.05331778 279.27299966 410.37331778 278.25299966 C409.71331778 278.25299966 409.05331778 278.25299966 408.37331778 278.25299966 C408.37331778 277.59299966 408.37331778 276.93299966 408.37331778 276.25299966 C406.7111651 274.91404334 405.0436817 273.58169824 403.37331778 272.25299966 C402.77519278 271.48987466 402.17706778 270.72674966 401.56081778 269.94049966 C397.98646355 265.54915018 393.81496412 261.06688178 388.37331778 259.25299966 C387.66937166 257.93896691 387.0098612 256.60097396 386.37331778 255.25299966 C382.60400443 249.88897683 377.57866139 245.88302519 372.54519278 241.75299966 C366.97571914 237.13685935 362.43295647 231.84075084 357.93581778 226.19049966 C353.86254147 221.52113414 349.15065808 217.66761745 344.31081778 213.81549966 C341.34375575 211.22721151 338.91230907 208.49124945 336.36550528 205.50299966 C331.74552739 200.28514229 326.65152715 195.49804733 321.68972403 190.60846841 C319.37331778 188.25299966 319.37331778 188.25299966 317.43581778 185.75299966 C314.97264548 182.76733627 312.45452405 180.59739574 309.37331778 178.25299966 C308.71331778 178.25299966 308.05331778 178.25299966 307.37331778 178.25299966 C307.13613028 177.68710123 306.89894278 177.12120279 306.65456778 176.53815591 C305.09233254 173.7518522 303.17594335 171.89967452 300.87331778 169.69049966 C298.34522625 167.25680116 296.32658844 165.18290565 294.37331778 162.25299966 C293.71331778 162.25299966 293.05331778 162.25299966 292.37331778 162.25299966 C292.37331778 161.59299966 292.37331778 160.93299966 292.37331778 160.25299966 C290.88905545 158.67108149 290.88905545 158.67108149 288.99831778 157.12799966 C288.3718334 156.58917154 287.74534903 156.05034341 287.09988028 155.49518716 C285.4572335 154.05832819 285.4572335 154.05832819 283.37331778 154.25299966 C283.04331778 153.26299966 282.71331778 152.27299966 282.37331778 151.25299966 C280.49823616 149.04442306 280.49823616 149.04442306 278.37331778 147.25299966 C277.71331778 147.25299966 277.05331778 147.25299966 276.37331778 147.25299966 C276.11292715 146.67936685 275.85253653 146.10573404 275.58425528 145.51471841 C274.27993191 143.07857897 272.7980362 141.1599318 270.99831778 139.06549966 C270.12046622 138.02329263 270.12046622 138.02329263 269.22488028 136.96003091 C267.19943117 135.09268648 265.97566958 134.88974532 263.37331778 134.25299966 C262.87831778 132.76799966 262.87831778 132.76799966 262.37331778 131.25299966 C261.67206778 130.69612466 260.97081778 130.13924966 260.24831778 129.56549966 C257.75721626 127.56178757 256.1087286 125.7718684 254.12331778 123.31549966 C250.50461795 119.05117277 246.45517583 116.52129682 241.37331778 114.25299966 C234.97067797 114.25299966 229.88556638 118.1870174 225.37331778 122.25299966 Z M465.37331778 463.25299966 C460.69521128 470.27015941 462.18712643 480.56601412 462.18801504 488.73590982 C462.18580971 491.01132287 462.1675512 493.28626461 462.1487084 495.56159341 C462.14577714 497.01601885 462.14379056 498.47044657 462.14284903 499.92487466 C462.13874014 501.23552896 462.13463125 502.54618326 462.13039786 503.89655435 C462.56000338 509.83245059 465.13287565 512.2300161 469.37331778 516.25299966 C469.70331778 516.58299966 470.03331778 516.91299966 470.37331778 517.25299966 C471.9271942 517.35263665 473.48560522 517.38223171 475.04267126 517.38442743 C476.05873033 517.38826857 477.07478939 517.39210972 478.12163812 517.39606726 C479.25147158 517.39520078 480.38130504 517.3943343 481.54537588 517.39344156 C483.32996171 517.39789824 483.32996171 517.39789824 485.15059978 517.40244496 C488.46796278 517.40964857 491.78527403 517.41230608 495.10264117 517.41304243 C498.67467401 517.41488818 502.24669551 517.42243315 505.81872183 517.42917764 C513.63692926 517.44278211 521.45513157 517.44878918 529.27334887 517.4531883 C534.15244983 517.45594759 539.03154879 517.4601844 543.91064841 517.46469247 C557.41129946 517.47688871 570.9119489 517.4871868 584.41260535 517.49056756 C585.70972968 517.49089691 585.70972968 517.49089691 587.03305854 517.49123292 C588.33334766 517.49156033 588.33334766 517.49156033 589.65990525 517.49189436 C591.41658964 517.49233784 593.17327402 517.4927844 594.9299584 517.49323404 C595.80134086 517.49345547 596.67272332 517.4936769 597.57051131 517.49390504 C611.68998754 517.49785301 625.80941215 517.5153054 639.92886844 517.53859356 C654.41455527 517.56229345 668.90021619 517.57476882 683.38592273 517.57593548 C691.52331814 517.5768531 699.66064635 517.58262698 707.79802328 517.6007551 C714.72767461 517.61613785 721.65723798 517.62128745 728.58690313 517.61301699 C732.12371117 517.60910375 735.66034199 517.61007263 739.19712836 517.62407434 C743.02927098 517.63910675 746.86116266 517.63096651 750.6933251 517.62049234 C751.81423568 517.62854874 752.93514625 517.63660515 754.09002382 517.64490569 C755.11651387 517.63831584 756.14300392 517.631726 757.20059973 517.62493646 C758.52747876 517.62583209 758.52747876 517.62583209 759.88116342 517.62674582 C762.97492271 517.16277751 764.84397913 516.06804991 767.37331778 514.25299966 C770.63367795 509.42568956 770.81559816 505.21956127 770.77175528 499.60065591 C770.77462546 498.78229761 770.77749563 497.9639393 770.78045279 497.12078226 C770.78248621 495.39702539 770.77700702 493.67324506 770.76443106 491.94953287 C770.74838721 489.32684997 770.76429301 486.70571276 770.78347403 484.08307779 C770.78149106 482.4014338 770.77764629 480.71979076 770.77175528 479.03815591 C770.78086432 477.87377748 770.78086432 477.87377748 770.79015738 476.68587625 C770.72415581 471.5148048 770.20311222 467.6599935 767.37331778 463.25299966 C760.81389131 460.97550432 754.49647124 460.97068042 747.60744864 460.99903238 C745.85381837 460.99435241 745.85381837 460.99435241 744.06476122 460.98957789 C740.837379 460.9830029 737.61014844 460.98533946 734.38277012 460.99155033 C730.89532788 460.9960879 727.40790566 460.9890846 723.92046744 460.98359048 C717.09553529 460.97470875 710.2706472 460.97661305 703.44571334 460.98241577 C697.89772324 460.98693705 692.34974547 460.98754314 686.80175406 460.98536813 C686.01139445 460.98506167 685.22103483 460.9847552 684.40672493 460.98443945 C682.80100105 460.98379998 681.19527717 460.98315155 679.5895533 460.98249426 C664.54138423 460.97679454 649.49323956 460.98334325 634.4450745 460.994095 C621.53995848 461.00303018 608.63487846 461.00147804 595.72976309 460.99225748 C580.73453211 460.98154852 565.7393225 460.97734383 550.74408823 460.983482 C549.14435266 460.98411908 547.54461708 460.98474783 545.9448815 460.98536813 C545.15783156 460.98567668 544.37078162 460.98598523 543.55988169 460.98630314 C538.02013926 460.9880282 532.4804104 460.98511904 526.94067007 460.98040903 C520.1873171 460.97479326 513.4340106 460.97633129 506.68066293 460.98697051 C503.23663707 460.99221785 499.79268864 460.9943 496.34866339 460.98767221 C492.61209395 460.98220914 488.87574247 460.98906051 485.13918692 460.99903238 C484.0551354 460.99457093 482.97108387 460.99010949 481.8541823 460.98551285 C476.0320131 461.0156599 470.90165464 461.34212948 465.37331778 463.25299966 Z " fill="white" transform="translate(534.6266822218895,31.747000336647034)"/>
<path d="M0 0 C5.67884637 0.04683585 9.80262481 4.14725326 14.0625 7.5 C14.990625 8.20125 15.91875 8.9025 16.875 9.625 C19.40696107 11.79525235 21.70772051 14.13837522 24.0625 16.5 C24.90167969 17.304375 25.74085938 18.10875 26.60546875 18.9375 C49.46398531 41.08696361 64.52904731 69.74151672 75.0625 99.5 C75.5059375 100.73621094 75.949375 101.97242188 76.40625 103.24609375 C79.4077179 111.89361559 81.66635567 120.57279632 83.62158203 129.50683594 C84.02114934 131.31307489 84.44475254 133.11395518 84.87109375 134.9140625 C86.52708869 142.10434105 87.68167014 149.32056868 88.6875 156.625 C88.81068604 157.51920654 88.93387207 158.41341309 89.06079102 159.3347168 C93.77244587 194.98634708 91.57573713 231.08917208 86.0625 266.5 C85.88497192 267.64269348 85.88497192 267.64269348 85.70385742 268.80847168 C83.01217399 285.92783801 79.35824286 302.58152143 73.87207031 319.04003906 C73.0953429 321.40020353 72.36266539 323.76869966 71.6484375 326.1484375 C71.43131104 326.86837891 71.21418457 327.58832031 70.99047852 328.33007812 C70.78737061 329.00490234 70.5842627 329.67972656 70.375 330.375 C68.93861718 335.12812134 67.20339033 339.58011937 65.15307617 344.09033203 C64.01754959 346.59931958 62.92576624 349.12375096 61.84375 351.65625 C61.46863281 352.53410156 61.09351563 353.41195313 60.70703125 354.31640625 C60.32933594 355.20199219 59.95164062 356.08757812 59.5625 357 C57.06119634 362.86483145 54.53886985 368.71761329 51.93798828 374.5390625 C51.22661735 376.13240643 50.52408427 377.72969398 49.82421875 379.328125 C46.60277504 386.59101627 42.94659937 393.57198498 39.0625 400.5 C38.65725098 401.2228418 38.25200195 401.94568359 37.83447266 402.69042969 C31.68055482 413.60889215 25.20766906 424.20354791 18.0625 434.5 C17.57604004 435.20431152 17.08958008 435.90862305 16.58837891 436.63427734 C8.61287498 448.15557533 0.16322897 459.07775368 -8.9284668 469.73730469 C-11.6433105 472.93034458 -14.26779998 476.16805074 -16.8125 479.5 C-19.31913815 482.76514804 -21.94863062 485.65692913 -24.9375 488.5 C-26.20912262 489.79088963 -27.47987567 491.08263614 -28.75 492.375 C-31.99159093 495.62266132 -35.36242443 498.64357397 -38.84765625 501.625 C-42.07438891 504.52001248 -45.05638727 507.64845554 -48.0546875 510.77734375 C-49.9375 512.5 -49.9375 512.5 -51.9375 512.5 C-51.9375 513.16 -51.9375 513.82 -51.9375 514.5 C-54.02664941 516.28811924 -56.12418848 517.96595583 -58.3125 519.625 C-59.60448509 520.6206807 -60.89614997 521.61677704 -62.1875 522.61328125 C-62.826875 523.10393066 -63.46625 523.59458008 -64.125 524.10009766 C-66.547675 525.97127471 -68.93129995 527.88893683 -71.3125 529.8125 C-87.54591383 542.79398602 -105.0867198 553.58789199 -123.1875 563.75 C-124.24964722 564.35038086 -124.24964722 564.35038086 -125.33325195 564.96289062 C-143.81374109 575.23006552 -164.42021659 583.39433734 -184.9375 588.5 C-185.75234863 588.70963379 -186.56719727 588.91926758 -187.40673828 589.13525391 C-216.70358799 596.55334905 -269.01712458 606.37262035 -297.0625 590.625 C-303.03856311 586.20228182 -305.35691093 582.44142616 -306.56640625 575.15234375 C-306.75009766 573.83943359 -306.75009766 573.83943359 -306.9375 572.5 C-307.04964844 571.73816406 -307.16179687 570.97632813 -307.27734375 570.19140625 C-312.71862238 525.9903346 -299.17588212 476.42796434 -278.875 437.375 C-276.67563123 433.07942139 -274.59816334 428.85164646 -272.9375 424.3125 C-270.48567064 417.88182474 -266.62236182 412.27899095 -262.9375 406.5 C-261.57970022 404.29389864 -260.22547923 402.08559027 -258.875 399.875 C-257.87726563 398.26044922 -257.87726563 398.26044922 -256.859375 396.61328125 C-255.65232237 394.65795412 -254.45317782 392.69769993 -253.265625 390.73046875 C-248.77586534 383.42926435 -243.61221657 376.78965654 -238.24365234 370.12646484 C-237.07547928 368.67181644 -235.92152498 367.20577597 -234.76953125 365.73828125 C-230.76500256 360.64669487 -226.57780828 355.77637017 -222.2109375 350.9921875 C-220.72456732 349.36279889 -219.25002127 347.72252406 -217.7890625 346.0703125 C-209.4009248 336.59201972 -200.69995217 327.66638281 -190.78515625 319.77734375 C-187.61675055 317.24348844 -184.5252101 314.63092677 -181.4375 312 C-170.71909859 302.90312051 -159.78392423 294.13122207 -148.53515625 285.69921875 C-142.48089155 281.11199106 -136.94921926 276.012714 -131.39550781 270.84472656 C-129.24950353 268.86545805 -127.06036363 266.93560779 -124.875 265 C-115.11354164 256.44617816 -115.11354164 256.44617816 -106.9375 246.5 C-106.2775 246.5 -105.6175 246.5 -104.9375 246.5 C-104.68742188 245.92765625 -104.43734375 245.3553125 -104.1796875 244.765625 C-102.76170095 242.17936022 -101.09939106 240.38388587 -99.0625 238.25 C-93.42987463 232.09633432 -88.53156952 225.47096651 -83.59814453 218.75195312 C-81.85823083 216.39250531 -80.1006115 214.04704395 -78.33984375 211.703125 C-71.72327748 202.86425453 -65.55736083 194.00958983 -59.9375 184.5 C-58.60472493 182.39547968 -57.27137903 180.29132078 -55.9375 178.1875 C-51.84148296 171.52049371 -48.35358737 164.64721367 -44.96728516 157.60253906 C-43.96491791 155.55597985 -42.91704911 153.5397974 -41.85546875 151.5234375 C-33.84619447 135.95136726 -28.85457958 119.17799997 -23.58520508 102.53436279 C-23.00452641 100.71052179 -22.41219691 98.89039983 -21.81835938 97.07080078 C-13.83331698 72.59199971 -9.05507365 46.10518775 -7.7109375 20.37890625 C-6.70549084 1.14136014 -6.70549084 1.14136014 0 0 Z " fill="white" transform="translate(478.9375,66.5)"/>
</svg>
